<svg xmlns="http://www.w3.org/2000/svg" width="63.262" height="37.83" viewBox="0 0 63.262 37.83">
  <g id="aws-2" transform="translate(-1.668 -1.1)">
    <path id="Path_9233" data-name="Path 9233" d="M29.312,14.839a6.366,6.366,0,0,0,.231,1.873,11.263,11.263,0,0,0,.673,1.515.915.915,0,0,1,.147.484.833.833,0,0,1-.4.631l-1.326.884a1.009,1.009,0,0,1-.547.189.968.968,0,0,1-.631-.295,6.509,6.509,0,0,1-.757-.989c-.21-.358-.421-.757-.652-1.241a7.773,7.773,0,0,1-6.186,2.9,5.765,5.765,0,0,1-4.208-1.515,5.4,5.4,0,0,1-1.557-4.04A5.416,5.416,0,0,1,16.015,10.9a7.654,7.654,0,0,1,5.155-1.641,16.659,16.659,0,0,1,2.23.168c.778.105,1.578.274,2.42.463V8.359a4.662,4.662,0,0,0-.989-3.366,4.843,4.843,0,0,0-3.43-.968,9.573,9.573,0,0,0-2.272.274,16.765,16.765,0,0,0-2.272.715,6.037,6.037,0,0,1-.736.274,1.291,1.291,0,0,1-.337.063c-.295,0-.442-.21-.442-.652V3.667a1.331,1.331,0,0,1,.147-.736,1.575,1.575,0,0,1,.589-.442,12.113,12.113,0,0,1,2.651-.947,12.756,12.756,0,0,1,3.282-.4c2.5,0,4.334.568,5.513,1.7A6.963,6.963,0,0,1,29.27,8.022v6.817Zm-8.542,3.2a6.819,6.819,0,0,0,2.167-.379,4.689,4.689,0,0,0,2-1.347,3.34,3.34,0,0,0,.715-1.347,7.553,7.553,0,0,0,.21-1.83v-.884a17.571,17.571,0,0,0-1.936-.358,15.854,15.854,0,0,0-1.978-.126,4.851,4.851,0,0,0-3.135.842,2.933,2.933,0,0,0-1.031,2.42,2.715,2.715,0,0,0,2.988,3.009Zm16.9,2.272a1.175,1.175,0,0,1-.8-.21,1.715,1.715,0,0,1-.442-.821L31.479,3.015a3.686,3.686,0,0,1-.189-.842.462.462,0,0,1,.5-.526h2.062a1.166,1.166,0,0,1,.821.21,1.721,1.721,0,0,1,.421.821l3.535,13.929L41.915,2.678a1.476,1.476,0,0,1,.4-.821,1.447,1.447,0,0,1,.842-.21H44.84a1.266,1.266,0,0,1,.842.21,1.418,1.418,0,0,1,.4.821l3.324,14.1,3.64-14.1a1.8,1.8,0,0,1,.421-.821,1.373,1.373,0,0,1,.821-.21h1.957a.468.468,0,0,1,.526.526,2.1,2.1,0,0,1-.042.337,2.994,2.994,0,0,1-.147.526L51.509,19.3a1.613,1.613,0,0,1-.442.821,1.346,1.346,0,0,1-.8.21H48.459a1.266,1.266,0,0,1-.842-.21,1.492,1.492,0,0,1-.4-.842L43.956,5.708l-3.24,13.55a1.642,1.642,0,0,1-.4.842,1.3,1.3,0,0,1-.842.21Zm27.037.568a13.923,13.923,0,0,1-3.24-.379,9.572,9.572,0,0,1-2.42-.842,1.516,1.516,0,0,1-.652-.589,1.485,1.485,0,0,1-.126-.589V17.406c0-.442.168-.652.484-.652a1.191,1.191,0,0,1,.379.063c.126.042.316.126.526.21a11.444,11.444,0,0,0,2.314.736,12.635,12.635,0,0,0,2.5.252,5.677,5.677,0,0,0,3.072-.694,2.266,2.266,0,0,0,1.094-2,2.049,2.049,0,0,0-.568-1.473,5.279,5.279,0,0,0-2.125-1.094l-3.051-.947a6.417,6.417,0,0,1-3.366-2.146,5.013,5.013,0,0,1-1.052-3.051,4.683,4.683,0,0,1,.568-2.335,5.41,5.41,0,0,1,1.515-1.725,6.678,6.678,0,0,1,2.188-1.094A9.17,9.17,0,0,1,65.4,1.1a10.562,10.562,0,0,1,1.41.084c.484.063.926.147,1.368.231.421.105.821.21,1.2.337a4.592,4.592,0,0,1,.884.379,1.819,1.819,0,0,1,.631.526,1.134,1.134,0,0,1,.189.694V4.34c0,.442-.168.673-.484.673a2.189,2.189,0,0,1-.8-.252,9.626,9.626,0,0,0-4.04-.821,5.431,5.431,0,0,0-2.8.589A2.032,2.032,0,0,0,61.966,6.4,1.987,1.987,0,0,0,62.6,7.9a6.285,6.285,0,0,0,2.314,1.157L67.9,10a6.4,6.4,0,0,1,3.261,2.02,4.761,4.761,0,0,1,.968,2.946,5.409,5.409,0,0,1-.547,2.441,5.658,5.658,0,0,1-1.536,1.852,6.782,6.782,0,0,1-2.335,1.178,10,10,0,0,1-3.009.442Z" transform="translate(-9.816)" fill="#414b58"/>
    <g id="Group_1994" data-name="Group 1994" transform="translate(1.668 24.684)">
      <path id="Path_9234" data-name="Path 9234" d="M58.862,124.31c-6.922,5.113-16.979,7.827-25.627,7.827a46.362,46.362,0,0,1-31.287-11.93c-.652-.589-.063-1.389.715-.926a62.138,62.138,0,0,0,55.188,3.43C59.009,122.185,60,123.468,58.862,124.31Z" transform="translate(-1.668 -117.891)" fill="#414b58" fill-rule="evenodd"/>
      <path id="Path_9235" data-name="Path 9235" d="M254.658,116.329c-.884-1.136-5.849-.547-8.1-.274-.673.084-.778-.5-.168-.947,3.956-2.777,10.457-1.978,11.214-1.052.757.947-.21,7.448-3.913,10.562-.568.484-1.115.231-.863-.4C253.669,122.136,255.542,117.444,254.658,116.329Z" transform="translate(-194.582 -113.192)" fill="#414b58" fill-rule="evenodd"/>
    </g>
  </g>
</svg>
