<svg id="c--4" xmlns="http://www.w3.org/2000/svg" width="63.697" height="71.59" viewBox="0 0 63.697 71.59">
  <path id="Path_9236" data-name="Path 9236" d="M63.694,21.047a6.32,6.32,0,0,0-.779-3.18,6.08,6.08,0,0,0-2.3-2.245Q47.891,8.288,35.166.964a6.247,6.247,0,0,0-6.77.067C25.021,3.021,8.122,12.7,3.087,15.619A5.882,5.882,0,0,0,0,21.045q0,14.75,0,29.5a6.343,6.343,0,0,0,.745,3.12A6.06,6.06,0,0,0,3.084,55.97c5.036,2.917,21.937,12.6,25.311,14.588a6.248,6.248,0,0,0,6.771.067q12.716-7.342,25.447-14.659a6.063,6.063,0,0,0,2.339-2.306,6.352,6.352,0,0,0,.744-3.12s0-19.661,0-29.494" transform="translate(0 0)" fill="#414b58"/>
  <path id="Path_9237" data-name="Path 9237" d="M34.189,143.241l-31.2,17.965a6.061,6.061,0,0,0,2.339,2.306c5.036,2.917,21.937,12.6,25.311,14.588a6.248,6.248,0,0,0,6.771.067q12.716-7.342,25.447-14.659A6.063,6.063,0,0,0,65.2,161.2Z" transform="translate(-2.243 -107.542)" fill="#2f3843"/>
  <path id="Path_9238" data-name="Path 9238" d="M159.93,74.872a6.32,6.32,0,0,0-.779-3.18L128.182,89.524l31.007,17.962a6.358,6.358,0,0,0,.744-3.12s0-19.661,0-29.494" transform="translate(-96.236 -53.825)" fill="#2f3843"/>
  <g id="Group_1995" data-name="Group 1995" transform="translate(8.338 12.119)">
    <path id="Path_9239" data-name="Path 9239" d="M186.719,116.294v3.358h3.358v-3.358h1.679v3.358h3.358v1.679h-3.358v3.358h3.358v1.679h-3.358v3.358h-1.679v-3.358h-3.358v3.358H185.04v-3.358h-3.358v-1.679h3.358v-3.358h-3.358v-1.679h3.358v-3.358Zm3.358,5.037h-3.358v3.358h3.358Z" transform="translate(-144.741 -99.429)" fill="#fff"/>
    <path id="Path_9240" data-name="Path 9240" d="M57.132,48.625a23.667,23.667,0,0,1,20.5,11.827l-.04-.068L67.289,66.318a11.783,11.783,0,0,0-10.022-5.805h-.135a11.79,11.79,0,1,0,10.273,17.57l-.049.086,10.29,5.961A23.668,23.668,0,0,1,57.4,95.976h-.264a23.676,23.676,0,0,1,0-47.353Z" transform="translate(-33.456 -48.625)" fill="#fff"/>
  </g>
</svg>
