<svg xmlns="http://www.w3.org/2000/svg" width="63.715" height="71.59" viewBox="0 0 63.715 71.59">
  <g id="graphql-logo-2" transform="translate(-25.74 -4.2)">
    <path id="Path_9241" data-name="Path 9241" d="M45.72,69.206l-2.628-1.517L72.37,16.98,75,18.5Z" transform="translate(-14.18 -10.444)" fill="#414b58"/>
    <path id="Path_9242" data-name="Path 9242" d="M39.8,272.2H98.355v3.035H39.8Z" transform="translate(-11.49 -219.006)" fill="#414b58"/>
    <path id="Path_9243" data-name="Path 9243" d="M75.427,89.682,46.138,72.772l1.517-2.628,29.289,16.91ZM100.87,45.609,71.581,28.7,73.1,26.071l29.289,16.91Z" transform="translate(-16.669 -17.873)" fill="#414b58"/>
    <path id="Path_9244" data-name="Path 9244" d="M47.7,45.546l-1.517-2.628,29.289-16.91,1.517,2.628Z" transform="translate(-16.705 -17.821)" fill="#414b58"/>
    <path id="Path_9245" data-name="Path 9245" d="M105.529,69.209,76.251,18.5l2.628-1.517,29.278,50.709ZM52.5,33.531h3.035V67.351H52.5Z" transform="translate(-21.868 -10.446)" fill="#414b58"/>
    <path id="Path_9246" data-name="Path 9246" d="M330.9,107.5h3.035v33.821H330.9Z" transform="translate(-249.372 -84.415)" fill="#414b58"/>
    <path id="Path_9247" data-name="Path 9247" d="M197.6,291l-1.325-2.3,25.473-14.707,1.325,2.3Z" transform="translate(-139.356 -220.47)" fill="#414b58"/>
    <path id="Path_9248" data-name="Path 9248" d="M88.584,57.893a6.384,6.384,0,1,1-2.34-8.72,6.39,6.39,0,0,1,2.34,8.72M37.652,28.478a6.384,6.384,0,1,1-2.34-8.72,6.39,6.39,0,0,1,2.34,8.72M26.61,57.893a6.384,6.384,0,1,1,8.72,2.34,6.394,6.394,0,0,1-8.72-2.34M77.542,28.478a6.384,6.384,0,1,1,8.72,2.34,6.394,6.394,0,0,1-8.72-2.34M57.6,75.79a6.38,6.38,0,1,1,6.38-6.38,6.374,6.374,0,0,1-6.38,6.38m0-58.83a6.38,6.38,0,1,1,6.38-6.38,6.374,6.374,0,0,1-6.38,6.38" transform="translate(0)" fill="#414b58"/>
  </g>
</svg>
