<svg xmlns="http://www.w3.org/2000/svg" width="771.913" height="106.836" viewBox="0 0 771.913 106.836">
  <g id="Group_2006" data-name="Group 2006" transform="translate(-476.103 -1653.207)">
    <rect id="Rectangle_1059" data-name="Rectangle 1059" width="34" height="79.557" transform="matrix(0.966, -0.259, 0.259, 0.966, 681.441, 1669.893)" fill="#6f729d"/>
    <rect id="Rectangle_1101" data-name="Rectangle 1101" width="34" height="79.557" transform="translate(884.672 1665.019)" fill="#6f729d"/>
    <g id="Group_2000" data-name="Group 2000">
      <rect id="Rectangle_1067" data-name="Rectangle 1067" width="80.671" height="79.794" transform="translate(476.103 1664.019)" fill="#f3c978"/>
      <rect id="Rectangle_1068" data-name="Rectangle 1068" width="60.475" height="8.275" transform="translate(502.34 1683.018)" fill="#1a191e"/>
      <rect id="Rectangle_1103" data-name="Rectangle 1103" width="60.475" height="8.275" transform="translate(502.34 1716.018)" fill="#1a191e"/>
    </g>
    <g id="Group_2003" data-name="Group 2003">
      <rect id="Rectangle_1104" data-name="Rectangle 1104" width="80.671" height="79.794" transform="translate(1015.168 1653.207) rotate(65)" fill="#7fb3a6"/>
      <rect id="Rectangle_1105" data-name="Rectangle 1105" width="60.475" height="8.275" transform="translate(1015.799 1699.517) rotate(65)" fill="#fff"/>
      <rect id="Rectangle_1107" data-name="Rectangle 1107" width="60.475" height="8.275" transform="translate(1009.037 1685.016) rotate(65)" fill="#1a191e"/>
      <rect id="Rectangle_1106" data-name="Rectangle 1106" width="60.475" height="8.275" transform="translate(979.129 1698.962) rotate(65)" fill="#1a191e"/>
    </g>
    <g id="Group_2005" data-name="Group 2005">
      <g id="Group_1999" data-name="Group 1999" transform="translate(-5)">
        <rect id="Rectangle_1076" data-name="Rectangle 1076" width="79.016" height="79.557" transform="translate(1174 1663.92)" fill="#6f729d"/>
        <rect id="Rectangle_1109" data-name="Rectangle 1109" width="24.258" height="29.45" transform="translate(1228.45 1658.758) rotate(90)"/>
        <rect id="Rectangle_1110" data-name="Rectangle 1110" width="24.258" height="29.45" transform="translate(1228.45 1725.758) rotate(90)"/>
      </g>
    </g>
    <g id="Group_2002" data-name="Group 2002">
      <rect id="Rectangle_1098" data-name="Rectangle 1098" width="80.671" height="79.794" transform="matrix(0.966, 0.259, -0.259, 0.966, 775.635, 1654.209)" fill="#dc7759"/>
      <rect id="Rectangle_1097" data-name="Rectangle 1097" width="60.476" height="8.275" transform="matrix(0.966, 0.259, -0.259, 0.966, 802.84, 1715.871)" fill="#1a191e"/>
      <rect id="Rectangle_1099" data-name="Rectangle 1099" width="60.476" height="8.275" transform="matrix(0.966, 0.259, -0.259, 0.966, 802.84, 1715.871)" fill="#1a191e"/>
      <rect id="Rectangle_1100" data-name="Rectangle 1100" width="60.476" height="8.275" transform="matrix(0.966, 0.259, -0.259, 0.966, 753.102, 1667.836)" fill="#1a191e"/>
    </g>
    <g id="Group_2004" data-name="Group 2004">
      <rect id="WhatsApp_Image_2022-07-22_at_9.44.35_PM" data-name="WhatsApp Image 2022-07-22 at 9.44.35 PM" width="72.78" height="72.78" rx="36.39" transform="translate(1069.685 1664.1)" fill="#f3c978"/>
      <circle id="Ellipse_179" data-name="Ellipse 179" cx="6" cy="6" r="6" transform="translate(1099.604 1694.625)" fill="#1a191e"/>
    </g>
    <g id="Group_2001" data-name="Group 2001" transform="matrix(0.966, 0.259, -0.259, 0.966, 462.318, -103.823)">
      <path id="Path_9261" data-name="Path 9261" d="M0,30.475A40.434,40.434,0,0,1,1.695,18.813,32.937,32.937,0,0,1,6.521,8.926,23.284,23.284,0,0,1,13.743,2.32a16.8,16.8,0,0,1,17.039,0A23.284,23.284,0,0,1,38,8.926a32.935,32.935,0,0,1,4.826,9.887,40.434,40.434,0,0,1,1.695,11.662H0Z" transform="translate(649.749 1664.019) rotate(90)" fill="#7fb3a6"/>
      <path id="Path_9265" data-name="Path 9265" d="M0,32.753A39.492,39.492,0,0,1,2.021,20.219,34.1,34.1,0,0,1,7.777,9.593a26.95,26.95,0,0,1,8.614-7.1,21.95,21.95,0,0,1,20.321,0,26.95,26.95,0,0,1,8.614,7.1A34.093,34.093,0,0,1,51.08,20.219,39.491,39.491,0,0,1,53.1,32.753H0Z" transform="translate(658.027 1690.711) rotate(90)" fill="#7fb3a6"/>
      <path id="Rectangle_1075" data-name="Rectangle 1075" d="M0,0H79.794a0,0,0,0,1,0,0V27.011a7,7,0,0,1-7,7H0a0,0,0,0,1,0,0V0A0,0,0,0,1,0,0Z" transform="translate(592.904 1743.813) rotate(-90)" fill="#7fb3a6"/>
      <circle id="Ellipse_178" data-name="Ellipse 178" cx="4.5" cy="4.5" r="4.5" transform="matrix(0.966, 0.259, -0.259, 0.966, 621.251, 1679.818)" fill="#1a191e"/>
    </g>
  </g>
</svg>
