<svg xmlns="http://www.w3.org/2000/svg" width="366.307" height="50.698" viewBox="0 0 366.307 50.698">
  <g id="Group_2007" data-name="Group 2007" transform="translate(-476.103 -1653.207)">
    <rect id="Rectangle_1059" data-name="Rectangle 1059" width="16.134" height="37.753" transform="matrix(0.966, -0.259, 0.259, 0.966, 573.545, 1661.125)" fill="#6f729d"/>
    <rect id="Rectangle_1101" data-name="Rectangle 1101" width="16.134" height="37.753" transform="translate(669.987 1658.812)" fill="#6f729d"/>
    <g id="Group_2000" data-name="Group 2000" transform="translate(476.103 1658.338)">
      <rect id="Rectangle_1067" data-name="Rectangle 1067" width="38.282" height="37.866" transform="translate(0 0)" fill="#f3c978"/>
      <rect id="Rectangle_1068" data-name="Rectangle 1068" width="28.698" height="3.927" transform="translate(12.451 9.016)" fill="#1a191e"/>
      <rect id="Rectangle_1103" data-name="Rectangle 1103" width="28.698" height="3.927" transform="translate(12.451 24.676)" fill="#1a191e"/>
    </g>
    <g id="Group_2003" data-name="Group 2003" transform="translate(697.595 1653.207)">
      <rect id="Rectangle_1104" data-name="Rectangle 1104" width="38.282" height="37.866" transform="translate(34.318 0) rotate(65)" fill="#7fb3a6"/>
      <rect id="Rectangle_1105" data-name="Rectangle 1105" width="28.698" height="3.927" transform="translate(34.618 21.976) rotate(65)" fill="#fff"/>
      <rect id="Rectangle_1107" data-name="Rectangle 1107" width="28.698" height="3.927" transform="translate(31.409 15.095) rotate(65)" fill="#1a191e"/>
      <rect id="Rectangle_1106" data-name="Rectangle 1106" width="28.698" height="3.927" transform="translate(17.216 21.713) rotate(65)" fill="#1a191e"/>
    </g>
    <g id="Group_2005" data-name="Group 2005" transform="translate(804.913 1655.841)">
      <g id="Group_1999" data-name="Group 1999" transform="translate(0 0)">
        <rect id="Rectangle_1076" data-name="Rectangle 1076" width="37.497" height="37.753" transform="translate(0 2.45)" fill="#6f729d"/>
        <rect id="Rectangle_1109" data-name="Rectangle 1109" width="11.511" height="13.975" transform="translate(25.839 0) rotate(90)"/>
        <rect id="Rectangle_1110" data-name="Rectangle 1110" width="11.511" height="13.975" transform="translate(25.839 31.794) rotate(90)"/>
      </g>
    </g>
    <g id="Group_2002" data-name="Group 2002" transform="translate(606.535 1653.682)">
      <rect id="Rectangle_1098" data-name="Rectangle 1098" width="38.282" height="37.866" transform="matrix(0.966, 0.259, -0.259, 0.966, 11.709, 0)" fill="#dc7759"/>
      <rect id="Rectangle_1097" data-name="Rectangle 1097" width="28.698" height="3.927" transform="matrix(0.966, 0.259, -0.259, 0.966, 24.619, 29.261)" fill="#1a191e"/>
      <rect id="Rectangle_1099" data-name="Rectangle 1099" width="28.698" height="3.927" transform="matrix(0.966, 0.259, -0.259, 0.966, 24.619, 29.261)" fill="#1a191e"/>
      <rect id="Rectangle_1100" data-name="Rectangle 1100" width="28.698" height="3.927" transform="matrix(0.966, 0.259, -0.259, 0.966, 1.016, 6.467)" fill="#1a191e"/>
    </g>
    <g id="Group_2004" data-name="Group 2004" transform="translate(757.784 1658.376)">
      <rect id="WhatsApp_Image_2022-07-22_at_9.44.35_PM" data-name="WhatsApp Image 2022-07-22 at 9.44.35 PM" width="34.537" height="34.537" rx="17.269" transform="translate(0 0)" fill="#f3c978"/>
      <circle id="Ellipse_179" data-name="Ellipse 179" cx="2.847" cy="2.847" r="2.847" transform="translate(14.198 14.486)" fill="#1a191e"/>
    </g>
    <g id="Group_2001" data-name="Group 2001" transform="matrix(0.966, 0.259, -0.259, 0.966, 536.957, 1654.984)">
      <path id="Path_9261" data-name="Path 9261" d="M0,14.462A19.188,19.188,0,0,1,.8,8.927a15.63,15.63,0,0,1,2.29-4.692A11.049,11.049,0,0,1,6.522,1.1a7.974,7.974,0,0,1,8.086,0,11.049,11.049,0,0,1,3.427,3.135,15.629,15.629,0,0,1,2.29,4.692,19.187,19.187,0,0,1,.8,5.534H0Z" transform="translate(26.975 0) rotate(90)" fill="#7fb3a6"/>
      <path id="Path_9265" data-name="Path 9265" d="M0,15.543A18.741,18.741,0,0,1,.959,9.595,16.18,16.18,0,0,1,3.69,4.552,12.789,12.789,0,0,1,7.778,1.183a10.416,10.416,0,0,1,9.643,0,12.789,12.789,0,0,1,4.088,3.369A16.179,16.179,0,0,1,24.24,9.595a18.74,18.74,0,0,1,.959,5.948H0Z" transform="translate(30.904 12.667) rotate(90)" fill="#7fb3a6"/>
      <path id="Rectangle_1075" data-name="Rectangle 1075" d="M0,0H37.866a0,0,0,0,1,0,0V12.14a4,4,0,0,1-4,4H0a0,0,0,0,1,0,0V0A0,0,0,0,1,0,0Z" transform="translate(0 37.866) rotate(-90)" fill="#7fb3a6"/>
      <circle id="Ellipse_178" data-name="Ellipse 178" cx="2.135" cy="2.135" r="2.135" transform="matrix(0.966, 0.259, -0.259, 0.966, 13.452, 7.498)" fill="#1a191e"/>
    </g>
  </g>
</svg>
