<svg xmlns="http://www.w3.org/2000/svg" width="63.15" height="83.978" viewBox="0 0 63.15 83.978">
  <g id="Group_1996" data-name="Group 1996" transform="translate(7574.309 -4825.049)">
    <path id="Path_9250" data-name="Path 9250" d="M1258.288,190.4l1.8,3.389a10.225,10.225,0,0,0,1.361,1.694,46.977,46.977,0,0,1,4.23,4.787,41.538,41.538,0,0,1,6.588,13.289,32.736,32.736,0,0,1,1.4,9.017,31.836,31.836,0,0,1-9.291,23.486,26.251,26.251,0,0,1-3.317,2.831c-.625,0-.921-.478-1.179-.921a7.581,7.581,0,0,1-.921-2.65,12.719,12.719,0,0,1-.3-3.347v-.516C1258.618,241.344,1258.068,190.661,1258.288,190.4Z" transform="translate(-8800.658 4634.833)" fill="#2f3843"/>
    <path id="Path_9251" data-name="Path 9251" d="M879.705,185.646c-.072-.148-.148-.038-.224.038a3.4,3.4,0,0,1-.625,2.028,9.657,9.657,0,0,1-1.622,1.622,35.255,35.255,0,0,0-7.911,10.086,40.41,40.41,0,0,0-4.56,16.492,54.811,54.811,0,0,0,1.327,11.629,35.209,35.209,0,0,0,9.241,14.54,41.314,41.314,0,0,0,3.271,2.8c.333,0,.368-.3.443-.515a9.826,9.826,0,0,0,.334-1.433l.739-5.519Z" transform="translate(-8422.075 4639.477)" fill="#414b58"/>
    <path id="Path_9252" data-name="Path 9252" d="M1233.311,1535.817a5,5,0,0,1,.921-2.244,2.324,2.324,0,0,1-1.031-.955,6.769,6.769,0,0,1-.55-1.217,21,21,0,0,1-.773-4.746v-.955a4.633,4.633,0,0,0-.224,1.584,36.564,36.564,0,0,1-.663,4.969,4.4,4.4,0,0,1-.591,1.914.7.7,0,0,0,.038.258,21.9,21.9,0,0,1,.955,5.966v.739c0,.883-.038.7.7.993a3.238,3.238,0,0,1,.921.368c.224,0,.258-.182.258-.334l-.11-1.217v-3.389A9,9,0,0,1,1233.311,1535.817Z" transform="translate(-8773.877 3350.146)" fill="#4d5864"/>
    <path id="Path_9253" data-name="Path 9253" d="M419.351,2137.691v1.637a1.064,1.064,0,0,0,.012.194.412.412,0,0,0,.313.367,4.273,4.273,0,0,0,.5.1c.1.012.128.054.139.158.012.368-.019.411-.375.387a21.32,21.32,0,0,0-2.489,0h-.077c-.259.012-.279-.011-.279-.271,0-.042.012-.1.012-.139a.116.116,0,0,1,.128-.12c.174-.02.333-.066.5-.1a.446.446,0,0,0,.375-.422,6.16,6.16,0,0,0,.031-.755l.012-2.887a.445.445,0,0,0-.236-.41,3.179,3.179,0,0,0-.615-.259.68.68,0,0,1-.182-.066c-.159-.077-.163-.217-.012-.3a.592.592,0,0,1,.182-.066,9.87,9.87,0,0,0,1.916-.484c.128-.043.163-.031.174.1a.88.88,0,0,1-.012.248,2.971,2.971,0,0,0-.019.41.146.146,0,0,0,.066.139c.054.031.108,0,.159-.031a5.684,5.684,0,0,1,.7-.472,3.335,3.335,0,0,1,1.142-.422,1.6,1.6,0,0,1,1.3.387,2.513,2.513,0,0,1,.41.472c.108.159.12.163.259.054a6.512,6.512,0,0,1,1.3-.766,2,2,0,0,1,1.475-.066,1.767,1.767,0,0,1,1.057,1.022,2.9,2.9,0,0,1,.248,1.208v2.887a.415.415,0,0,0,.271.41,4.042,4.042,0,0,0,.646.163c.139.031.139.031.139.174-.019.356-.054.376-.4.356a22.3,22.3,0,0,0-2.593,0c-.174.011-.174.011-.182-.162v-.054c-.012-.29-.012-.29.271-.356l.279-.077a.435.435,0,0,0,.333-.422l.031-.809-.019-2.11a1.572,1.572,0,0,0-.12-.55,1.32,1.32,0,0,0-1.432-.828,2.449,2.449,0,0,0-1.165.464.237.237,0,0,0-.12.225,16.745,16.745,0,0,1,.043,2.067v1.5a.416.416,0,0,0,.368.464l.5.108c.077.011.12.042.12.128v.077c-.012.3-.031.313-.333.313-.863-.043-1.722-.031-2.574,0-.29.012-.314-.019-.3-.313.012-.174.031-.182.194-.217l.356-.066a.473.473,0,0,0,.453-.519l.031-.724-.019-2.164a1.7,1.7,0,0,0-.225-.774A1.131,1.131,0,0,0,421,2135.1a2.264,2.264,0,0,0-1.262.356.637.637,0,0,0-.368.658v1.572Zm20.293.066v1.517a2.93,2.93,0,0,0,.019.321.329.329,0,0,0,.259.3,2.579,2.579,0,0,0,.569.1c.108.012.128.054.139.139v.077c-.012.375-.054.422-.422.4a20.833,20.833,0,0,0-2.454,0l-.314.011c-.066,0-.077-.031-.1-.077a1.116,1.116,0,0,1,0-.453c.012-.066.054-.077.12-.1.159-.019.29-.054.441-.077a.4.4,0,0,0,.375-.453l.031-.906v-2.651a.4.4,0,0,0-.248-.4,3.962,3.962,0,0,0-.615-.259.692.692,0,0,1-.182-.077.2.2,0,0,1-.019-.344.369.369,0,0,1,.217-.085,9.165,9.165,0,0,0,2-.519c.077-.031.108-.012.139.054a.373.373,0,0,1,.031.217l-.031.507c0,.066-.031.159.019.182.066.042.108-.054.163-.077a4.685,4.685,0,0,1,1.045-.666,2.129,2.129,0,0,1,1.064-.236,1.807,1.807,0,0,1,1.571,1.045,2.786,2.786,0,0,1,.279,1.076l.031.79.012,2.38a.366.366,0,0,0,.259.367,3.734,3.734,0,0,0,.581.139c.174.02.182.054.194.217v.054c-.019.368-.043.375-.41.356a22.7,22.7,0,0,0-2.411,0c-.108.011-.217,0-.313.011-.066,0-.108-.011-.12-.078a1.224,1.224,0,0,1-.012-.429c.012-.066.043-.1.12-.108l.5-.077a.355.355,0,0,0,.29-.313l.019-.3-.012-2.252a3.716,3.716,0,0,0-.066-.774,1.258,1.258,0,0,0-1.119-1,2.039,2.039,0,0,0-1.359.344.593.593,0,0,0-.29.538v1.626c0-.031,0-.031.012-.031Z" transform="translate(-7991.297 2764.717)" fill="#2f3843"/>
    <path id="Path_9254" data-name="Path 9254" d="M1597.5,2053.436a4.223,4.223,0,0,0-.917-2.1,4.143,4.143,0,0,0-1.661-1.227,5.959,5.959,0,0,0-2.133-.387c-.3-.012-4.416.054-4.718,0a.161.161,0,0,0-.174.077,1.126,1.126,0,0,0-.14.248c-.128.29-.128.271.182.314a6.072,6.072,0,0,1,.755.139.6.6,0,0,1,.441.453c.019.12.043,3.909.043,5.674l-.043,1.262a1.084,1.084,0,0,1-.054.279.453.453,0,0,1-.248.29,1.3,1.3,0,0,1-.453.12c-.29.031-.333.043-.43.368l-.031.12c-.019.139-.012.163.128.163l3.22.031,1.262-.02.871-.108a5.415,5.415,0,0,0,2.628-1.25,4.341,4.341,0,0,0,1.034-1.359,4.831,4.831,0,0,0,.464-1.927A3.631,3.631,0,0,0,1597.5,2053.436Zm-1.56,1.529a4.282,4.282,0,0,1-.538,1.959,2.988,2.988,0,0,1-1.993,1.529,4.14,4.14,0,0,1-2.021-.1.9.9,0,0,1-.666-.944l-.012-6.495c0-.387.174-.472.453-.484a7.7,7.7,0,0,1,1.27.019,4.858,4.858,0,0,1,1.3.313,3.133,3.133,0,0,1,.852.526,3.757,3.757,0,0,1,1.181,1.85,5.348,5.348,0,0,1,.174,1.8Zm10.512,1.057a.94.94,0,0,0-.012-.182,2.067,2.067,0,0,0-.894-1.389,3.408,3.408,0,0,0-1.033-.484c-.066-.019-.12-.043-.182-.054a.094.094,0,0,1,.078-.077,2.68,2.68,0,0,0,.6-.387,1.994,1.994,0,0,0,.666-1.045,1.787,1.787,0,0,0,.043-.689,1.858,1.858,0,0,0-.786-1.4,2.817,2.817,0,0,0-1.68-.527c-1.165-.02-2.338,0-3.5,0a6.866,6.866,0,0,1-1.014-.031c-.066-.011-.159-.031-.2.043a1.524,1.524,0,0,0-.205.441c-.012.077.012.12.1.128l.743.109a.538.538,0,0,1,.519.464,5.028,5.028,0,0,1,.031.538l-.019,2.013-.012,3.983a3.6,3.6,0,0,1-.078.7.392.392,0,0,1-.279.322,2.208,2.208,0,0,1-.646.127.27.27,0,0,0-.279.182,1.509,1.509,0,0,0-.1.3c-.019.128.012.174.139.159.1-.011,3.65.077,4.32.011a6.306,6.306,0,0,0,1.184-.217,4.076,4.076,0,0,0,1.8-1.057,2.3,2.3,0,0,0,.666-1.552A1.958,1.958,0,0,0,1606.457,2056.021Zm-5.225-4.417.031-.863a.241.241,0,0,1,.224-.271,3.073,3.073,0,0,1,.774-.019,3.758,3.758,0,0,1,.766.128,1.609,1.609,0,0,1,1.057.863,1.545,1.545,0,0,1,.151.658,2.1,2.1,0,0,1-.128.882,1.177,1.177,0,0,1-.894.731,14.922,14.922,0,0,1-1.8.043c-.163,0-.174-.02-.174-.182v-1.014a7.021,7.021,0,0,1-.012-.948Zm3.5,5.794a1.661,1.661,0,0,1-.991,1,1.862,1.862,0,0,1-.79.139,6.289,6.289,0,0,1-1-.066.933.933,0,0,1-.689-.84c-.054-.55-.019-1.111-.031-1.517V2054.7c0-.174.019-.224.205-.224l1.014.012.689.077a2.33,2.33,0,0,1,1.27.666,1.764,1.764,0,0,1,.464,1.064,2.417,2.417,0,0,1-.128,1.1Z" transform="translate(-9117.616 2845.992)" fill="#414b58" opacity="0.5"/>
    <path id="Path_9255" data-name="Path 9255" d="M773.476,2135.182l.279.042a.7.7,0,0,0,.766-.519,1.109,1.109,0,0,0,0-.615c-.066,0-.1.054-.128.078a1.034,1.034,0,0,1-.538.224,2.5,2.5,0,0,1-1.154-.12l-.526-.182a3.174,3.174,0,0,0-1.142-.151,3.951,3.951,0,0,0-1.552.484,2.1,2.1,0,0,0-1.057,1.269,2.524,2.524,0,0,0-.066,1.022,1.91,1.91,0,0,0,1.25,1.625c.043.012.077.031.12.043.1.054.108.108.019.182l-.271.182-.646.4a.239.239,0,0,0-.128.344,1.145,1.145,0,0,0,.345.519,1.748,1.748,0,0,0,.5.3c.12.054.12.078.012.174l-.615.441a3.506,3.506,0,0,0-.581.519,1.058,1.058,0,0,0-.259.968,1.8,1.8,0,0,0,.561.968,2.259,2.259,0,0,0,.991.538,4.221,4.221,0,0,0,4.1-1.149,2.347,2.347,0,0,0,.689-1.575,1.512,1.512,0,0,0-1.165-1.572l-.581-.109-1.777-.158a1.208,1.208,0,0,1-.55-.139.366.366,0,0,1-.128-.538.512.512,0,0,1,.368-.205l.345-.031a3.119,3.119,0,0,0,1.819-.828,1.914,1.914,0,0,0,.55-.917,2.875,2.875,0,0,0,.019-1.417c-.031-.12-.019-.128.128-.109Zm-2.64,5.365a1.09,1.09,0,0,0,.194,0,6.166,6.166,0,0,1,1.359.174,2.768,2.768,0,0,1,.422.163,1.034,1.034,0,0,1,.538,1.088,1.365,1.365,0,0,1-.755,1.057,2.32,2.32,0,0,1-.917.259,3.379,3.379,0,0,1-.345,0,2.56,2.56,0,0,1-1.1-.182,1.7,1.7,0,0,1-.635-.43,1.109,1.109,0,0,1,.012-1.625A1.561,1.561,0,0,1,770.836,2140.547Zm1.231-3.36a1.05,1.05,0,0,1-1.215.666,1.3,1.3,0,0,1-1-.724,2.312,2.312,0,0,1-.193-1.711,1.059,1.059,0,0,1,.863-.852,1.319,1.319,0,0,1,1.486.712,2.339,2.339,0,0,1,.224,1.153A2.457,2.457,0,0,1,772.067,2137.187Zm-13.57-.735a2.985,2.985,0,0,0-.712-1.552,2.848,2.848,0,0,0-2.2-.948,3.779,3.779,0,0,0-2.067.592,2.813,2.813,0,0,0-1.262,1.649,3.748,3.748,0,0,0-.031,1.9,2.873,2.873,0,0,0,3.263,2.326,3.549,3.549,0,0,0,1.324-.387,2.921,2.921,0,0,0,1.39-1.366,3.524,3.524,0,0,0,.344-1.661Zm-1.529,2.392a1.31,1.31,0,0,1-1.111.906,1.8,1.8,0,0,1-1.312-.333,2.245,2.245,0,0,1-.677-.809,4.112,4.112,0,0,1-.29-2.822,1.6,1.6,0,0,1,.453-.786,1.465,1.465,0,0,1,1.378-.344,1.958,1.958,0,0,1,1.18.786,3.08,3.08,0,0,1,.538,1.378,6.226,6.226,0,0,1,.054.666,3.6,3.6,0,0,1-.205,1.359Zm25.062-2.3a2.911,2.911,0,0,0-.755-1.668,2.879,2.879,0,0,0-2.175-.918,3.831,3.831,0,0,0-2.005.55,2.744,2.744,0,0,0-1.347,1.776,3.757,3.757,0,0,0,.259,2.563,2.624,2.624,0,0,0,1.757,1.455,3.538,3.538,0,0,0,2.543-.271,2.964,2.964,0,0,0,1.51-1.614,3.972,3.972,0,0,0,.248-1.432A3.028,3.028,0,0,0,782.03,2136.541Zm-1.486,2.164a1.342,1.342,0,0,1-1.154,1.045,1.774,1.774,0,0,1-1.269-.3,2.194,2.194,0,0,1-.743-.882,3.309,3.309,0,0,1-.344-1.185,4.13,4.13,0,0,1,.054-1.51,1.5,1.5,0,0,1,.1-.29,1.45,1.45,0,0,1,1.757-.925,1.97,1.97,0,0,1,1.227.852,3.19,3.19,0,0,1,.5,1.417,2.949,2.949,0,0,1,.031.6,3.611,3.611,0,0,1-.159,1.184Z" transform="translate(-8313.726 2764.965)" fill="#2f3843"/>
  </g>
</svg>
