<svg xmlns="http://www.w3.org/2000/svg" width="63.708" height="43.385" viewBox="0 0 63.708 43.385">
  <g id="mysql-logo" transform="translate(7.938 7.931)">
    <path id="Path_9256" data-name="Path 9256" d="M18.041,24.243q-1.5,8.169-3.96,11.869-1.916,2.854-4.2,2.854a4.127,4.127,0,0,1-1.5-.366V37.286a6.937,6.937,0,0,0,1.022.066,2.469,2.469,0,0,0,1.719-.59,2.151,2.151,0,0,0,.783-1.613,10.793,10.793,0,0,0-.61-2.509l-2.7-8.4h2.415l1.936,6.283a8.489,8.489,0,0,1,.544,2.99,41.051,41.051,0,0,0,2.22-9.267H18.04M7.38,35.107H4.922q-.13-6.241-.718-11.738h-.02L.44,35.107H-1.432l-3.72-11.738h-.022q-.414,5.279-.522,11.738H-7.938q.217-7.855,1.087-14.725H-3.8L-.258,31.2h.022L3.333,20.382H6.248q.957,8.049,1.13,14.725" transform="translate(0 -3.512)" fill="#414b58"/>
    <path id="Path_9257" data-name="Path 9257" d="M54.664,35.073H47.68V20.349h2.35V33.26h4.634v1.811M37.1,32.126a9.091,9.091,0,0,1-.893-4.624q0-5.562,3.372-5.563a2.829,2.829,0,0,1,2.589,1.331,9.007,9.007,0,0,1,.892,4.582q0,5.606-3.372,5.608A2.824,2.824,0,0,1,37.1,32.128m8.746,3.3-2.7-1.335a5.131,5.131,0,0,0,.674-.657q1.721-2.027,1.72-6,0-7.308-5.723-7.309a5.41,5.41,0,0,0-4.374,1.855q-1.721,2.029-1.719,5.977,0,3.883,1.522,5.694a5.2,5.2,0,0,0,4.2,1.636,6.752,6.752,0,0,0,1.923-.258l3.515,2.051.958-1.656M32.7,30.991a3.913,3.913,0,0,1-1.37,3.076,5.391,5.391,0,0,1-3.675,1.2,7.364,7.364,0,0,1-4.178-1.375l.632-1.265a7.146,7.146,0,0,0,3.153.872,3.305,3.305,0,0,0,2.078-.587,2.01,2.01,0,0,0,.8-1.635c0-.874-.609-1.621-1.724-2.249q-1.55-.865-3.089-1.75a3.531,3.531,0,0,1-1.675-3.133,3.667,3.667,0,0,1,1.25-2.891,4.707,4.707,0,0,1,3.231-1.1,6.669,6.669,0,0,1,3.72,1.093l-.568,1.264a7.181,7.181,0,0,0-2.827-.611,2.517,2.517,0,0,0-1.74.547,1.825,1.825,0,0,0-.659,1.4c0,.872.622,1.629,1.769,2.269,1.042.567,3.153,1.773,3.153,1.773A3.482,3.482,0,0,1,32.7,30.993m23.632,4.08h.39v-1.5h.509v-.307H55.808v.307h.529Zm2.963,0h.367v-1.8h-.552l-.449,1.23-.49-1.23h-.532v1.8h.348V33.7h.019l.512,1.373h.265L59.3,33.7Z" transform="translate(-3.898 -3.481)" fill="#414b58"/>
    <path id="Path_9258" data-name="Path 9258" d="M36.56-7.929a1.4,1.4,0,0,0-1.442.913c-.479,1.157.71,2.295,1.119,2.883a8.387,8.387,0,0,1,.9,1.334c.124.3.16.624.285.943A21.33,21.33,0,0,0,38.348.529,8.327,8.327,0,0,0,39,1.631c.143.2.391.285.444.606a5.062,5.062,0,0,0-.408,1.335,7.855,7.855,0,0,0,.514,5.978c.284.444.958,1.423,1.864,1.049.8-.32.622-1.334.851-2.223.053-.215.018-.357.124-.5v.037c.248.5.5.977.728,1.477a10.16,10.16,0,0,0,2.307,2.383c.425.321.762.872,1.295,1.069v-.054h-.035a1.956,1.956,0,0,0-.408-.355,8.62,8.62,0,0,1-.922-1.069,22.75,22.75,0,0,1-1.987-3.237c-.285-.553-.533-1.157-.764-1.708-.106-.213-.106-.534-.284-.64a6.644,6.644,0,0,0-.851,1.208,10.1,10.1,0,0,0-.5,2.687c-.07.018-.035,0-.07.035-.568-.142-.763-.729-.977-1.226a7.708,7.708,0,0,1-.159-4.751c.123-.373.657-1.547.443-1.9-.107-.34-.462-.534-.657-.8a7.055,7.055,0,0,1-.638-1.139c-.426-1-.639-2.1-1.1-3.1a9.465,9.465,0,0,0-.887-1.37,8.868,8.868,0,0,1-.977-1.387c-.088-.2-.212-.517-.07-.73a.282.282,0,0,1,.249-.232c.229-.2.886.053,1.117.159A9.042,9.042,0,0,1,39-5.879c.248.179.514.517.834.606h.373c.568.124,1.207.035,1.74.2A11.363,11.363,0,0,1,44.507-3.85a15.773,15.773,0,0,1,5.535,6.085c.214.409.3.783.5,1.209.373.874.835,1.763,1.207,2.616a11.628,11.628,0,0,0,1.261,2.384c.265.373,1.33.569,1.809.765a12.542,12.542,0,0,1,1.225.5c.6.373,1.205.8,1.774,1.211.284.214,1.17.658,1.224,1.014a8.186,8.186,0,0,0-3.442.5c-.265.106-.691.106-.727.444.143.142.159.373.285.569a4.156,4.156,0,0,0,.922,1.086c.373.285.745.568,1.136.817.692.429,1.472.677,2.146,1.1.392.249.781.569,1.172.837.194.142.318.374.568.462V17.7c-.125-.159-.16-.391-.284-.569-.177-.177-.355-.337-.533-.515a8.474,8.474,0,0,0-1.845-1.8c-.568-.393-1.811-.928-2.041-1.584L56.36,13.2a7.174,7.174,0,0,0,1.225-.286c.6-.16,1.153-.124,1.774-.284.284-.072.568-.161.853-.248v-.162c-.321-.319-.551-.747-.887-1.049A23.829,23.829,0,0,0,56.4,8.977c-.552-.356-1.261-.586-1.846-.889-.212-.107-.567-.159-.692-.338a7.142,7.142,0,0,1-.727-1.37q-.787-1.52-1.455-3.1a19.259,19.259,0,0,0-.9-2.028A17.915,17.915,0,0,0,43.9-5.4a8.5,8.5,0,0,0-2.27-.73c-.445-.018-.887-.053-1.331-.07a7.136,7.136,0,0,1-.817-.625,6.561,6.561,0,0,0-2.923-1.108Zm4.378,4.4a2.838,2.838,0,0,0-.727.089v.035h.034a5.913,5.913,0,0,0,.568.731c.143.285.267.568.409.853l.035-.035a1,1,0,0,0,.374-.89,3.875,3.875,0,0,1-.214-.374c-.106-.177-.337-.266-.479-.409Z" transform="translate(-5.327 0)" fill="#414b58"/>
  </g>
</svg>
