<svg xmlns="http://www.w3.org/2000/svg" width="63.587" height="60.366" viewBox="0 0 63.587 60.366">
  <path id="redux" d="M44.059,42.159a4.545,4.545,0,0,0-.486-9.063h-.162a4.527,4.527,0,0,0-4.37,4.693,4.647,4.647,0,0,0,1.295,2.994c-2.751,5.422-6.959,9.387-13.27,12.7A21.882,21.882,0,0,1,13.877,56a11.248,11.248,0,0,1-8.254-4.774A11.886,11.886,0,0,1,4.976,38.68a19.047,19.047,0,0,1,5.5-6.474c-.324-1.052-.809-2.832-1.052-4.127-11.733,8.5-10.519,19.987-6.959,25.409,2.67,4.046,8.092,6.555,14.08,6.555a19.9,19.9,0,0,0,4.855-.566A31.053,31.053,0,0,0,44.059,42.159ZM58.3,32.125c-6.15-7.2-15.212-11.167-25.57-11.167H31.436a4.447,4.447,0,0,0-3.965-2.428h-.162a4.533,4.533,0,0,0,.162,9.063h.162A4.558,4.558,0,0,0,31.6,24.842h1.457A30.84,30.84,0,0,1,50.29,30.1,21.677,21.677,0,0,1,58.867,40.46a11.217,11.217,0,0,1-.162,9.549,11.879,11.879,0,0,1-11.085,6.635,20.7,20.7,0,0,1-7.93-1.7c-.89.809-2.508,2.1-3.641,2.913a24.981,24.981,0,0,0,10.438,2.508c7.768,0,13.513-4.289,15.7-8.578C64.531,47.1,64.369,39,58.3,32.125ZM17.195,43.535a4.545,4.545,0,0,0,4.531,4.37h.162a4.533,4.533,0,0,0-.162-9.063h-.162a1.378,1.378,0,0,0-.566.081A29.648,29.648,0,0,1,16.79,20.958,21.707,21.707,0,0,1,21.564,8.415c2.347-2.994,6.878-4.451,9.953-4.531C40.094,3.722,43.735,14.4,43.978,18.692c1.052.243,2.832.809,4.046,1.214C47.053,6.8,38.961,0,31.193,0c-7.283,0-14,5.26-16.669,13.028C10.8,23.386,13.23,33.339,17.761,41.188a3.636,3.636,0,0,0-.566,2.347Z" fill="#414b58"/>
</svg>
