<svg xmlns="http://www.w3.org/2000/svg" width="63.46" height="47.568" viewBox="0 0 63.46 47.568">
  <path id="sass-1" d="M54.514,27.556a13.074,13.074,0,0,0-5.752,1.339,11.831,11.831,0,0,1-1.289-2.975,8.228,8.228,0,0,1-.112-2.5,20.064,20.064,0,0,1,.756-2.7c-.013-.112-.136-.657-1.413-.669s-2.38.248-2.5.583a14.236,14.236,0,0,0-.533,1.9c-.223,1.165-2.554,5.293-3.88,7.462a7.613,7.613,0,0,1-.88-2.182,8.228,8.228,0,0,1-.111-2.5,20.075,20.075,0,0,1,.756-2.7c-.012-.112-.136-.657-1.413-.669s-2.38.248-2.5.583-.26,1.128-.533,1.9-3.359,7.661-4.165,9.458c-.409.917-.768,1.649-1.029,2.144s-.012.037-.037.087l-.347.657v.013c-.174.31-.359.607-.446.607A4.134,4.134,0,0,1,29.1,35.4c.459-2.392,1.574-6.123,1.562-6.26,0-.062.211-.719-.719-1.054a1.13,1.13,0,0,0-1.3.223c-.074,0-.136.2-.136.2s1-4.2-1.921-4.2c-1.835,0-4.363,2-5.615,3.818-.793.434-2.479,1.351-4.264,2.33-.682.372-1.388.769-2.058,1.128l-.136-.149c-3.545-3.781-10.1-6.458-9.83-11.54.1-1.847.744-6.718,12.594-12.619,9.706-4.834,17.478-3.508,18.829-.558,1.921,4.215-4.153,12.049-14.243,13.177-3.843.434-5.863-1.054-6.371-1.611-.533-.583-.607-.607-.806-.5-.322.174-.124.694,0,1a5.984,5.984,0,0,0,3.644,2.863c1.847.607,6.359.942,11.813-1.165,6.111-2.368,10.883-8.937,9.483-14.429C38.2.471,28.93-1.363,20.166,1.748,14.947,3.607,9.295,6.508,5.229,10.313.394,14.825-.374,18.767-.052,20.4c1.128,5.838,9.173,9.644,12.4,12.458-.161.087-.31.173-.446.248-1.611.793-7.747,4-9.284,7.4-1.735,3.843.273,6.607,1.611,6.979A9.906,9.906,0,0,0,14.9,43.162a10.7,10.7,0,0,0,.954-9.855l-.037-.074,1.264-.744c.818-.483,1.624-.93,2.33-1.314a15.434,15.434,0,0,0-.83,4.215c-.174,2.182.719,5.008,1.9,6.123a2.1,2.1,0,0,0,1.525.5c1.364,0,1.983-1.128,2.665-2.479.843-1.649,1.587-3.558,1.587-3.558s-.93,5.169,1.611,5.169c.93,0,1.859-1.2,2.281-1.822v.012s.025-.037.074-.124.1-.155.149-.235v-.025c.372-.645,1.2-2.12,2.442-4.562,1.6-3.149,3.136-7.09,3.136-7.09a22.624,22.624,0,0,0,.607,2.554,24.436,24.436,0,0,0,1.326,2.975c-.372.521-.595.818-.595.818l.012.012c-.3.4-.632.818-.979,1.24a36.025,36.025,0,0,0-2.975,3.731,1.021,1.021,0,0,0,.273,1.364,2.481,2.481,0,0,0,1.562.248,6.958,6.958,0,0,0,2.33-.533,8.071,8.071,0,0,0,2.008-1.054A4.471,4.471,0,0,0,41.437,34.7a7.951,7.951,0,0,0-.731-2.789c.112-.161.223-.322.335-.5A52.325,52.325,0,0,0,44.511,25.4a22.625,22.625,0,0,0,.607,2.554,17.9,17.9,0,0,0,1.128,2.554,11.02,11.02,0,0,0-3.384,4.376c-.731,2.107-.161,3.062.917,3.285a3.3,3.3,0,0,0,1.7-.347,7.7,7.7,0,0,0,2.145-1.1A4.849,4.849,0,0,0,49.99,32.8a7.509,7.509,0,0,0-.533-2.318,12.076,12.076,0,0,1,6.148-.707c5.516.645,6.607,4.091,6.4,5.528a3.7,3.7,0,0,1-1.748,2.479c-.384.236-.508.322-.471.5.05.26.223.248.558.2a4.291,4.291,0,0,0,3-3.83c.149-3.409-3.087-7.128-8.826-7.091ZM11.972,41.9c-1.822,2-4.388,2.752-5.479,2.107-1.178-.682-.719-3.62,1.525-5.739a29.166,29.166,0,0,1,4.3-3.21c.26-.161.657-.4,1.128-.682a1.322,1.322,0,0,1,.124-.074c.087-.05.186-.112.285-.174A7.907,7.907,0,0,1,11.972,41.9ZM25.3,32.836c-.632,1.549-1.971,5.528-2.777,5.305-.694-.186-1.116-3.2-.136-6.173a13.781,13.781,0,0,1,2.169-3.979c1-1.116,2.095-1.487,2.368-1.029C27.244,27.556,25.694,31.869,25.3,32.836Zm11,5.256c-.273.136-.521.236-.632.161-.087-.05.111-.236.111-.236s1.376-1.475,1.921-2.157c.31-.4.682-.855,1.078-1.376v.149c0,1.785-1.71,2.975-2.479,3.458Zm8.479-1.934c-.2-.149-.173-.607.5-2.045a7.664,7.664,0,0,1,1.884-2.43,3.066,3.066,0,0,1,.186,1.066A3.488,3.488,0,0,1,44.771,36.158Z" transform="translate(0.116 -0.241)" fill="#4d5864"/>
</svg>
