<svg xmlns="http://www.w3.org/2000/svg" width="63.768" height="38.092" viewBox="0 0 63.768 38.092">
  <g id="tailwind-css-wordmark" transform="translate(-8.16 -274.18)">
    <path id="Path_9260" data-name="Path 9260" d="M32.044.18Q19.293.18,16.1,12.879q4.787-6.349,11.163-4.765c2.423.606,4.156,2.358,6.077,4.3,3.125,3.156,6.745,6.814,14.647,6.814q12.751,0,15.94-12.7-4.781,6.349-11.159,4.762c-2.423-.6-4.16-2.358-6.077-4.295C43.566,3.834,39.946.18,32.044.18ZM16.1,19.226q-12.751,0-15.94,12.7,4.781-6.349,11.159-4.762c2.427.6,4.16,2.358,6.077,4.295,3.125,3.16,6.745,6.814,14.647,6.814q12.757,0,15.944-12.7Q43.2,31.923,36.829,30.339c-2.427-.606-4.16-2.358-6.081-4.3C27.622,22.884,24,19.226,16.1,19.226Z" transform="translate(8 274)" fill="#414b58"/>
  </g>
</svg>
